# xmcd
#
# Track frame offsets:
#	150
#	16760
#	29340
#	47707
#	65730
#	77365
#	92612
#	111102
#	130162
#	146480
#
# Disc length: 2166 seconds
#
# Revision: 0
# Processed by: cddbd v1.4PL0 Copyright (c) Steve Scherf et al.
# Submitted via: EasyCDDAExtractor 4.6.0.1
#
DISCID=7908740a
DTITLE=Roberto Corrêa - No Sertão
DYEAR=1998
DGENRE=country
TTITLE0=Luar do Sertão
TTITLE1=Maringá
TTITLE2=Morro Velho
TTITLE3=Chuá, Chuá
TTITLE4=Noites do Sertão
TTITLE5=Asa Branca
TTITLE6=Viola enluarada
TTITLE7=Azulão
TTITLE8=Sobradinho
TTITLE9=O mana deix'eu i (Sertão do Caicó)
EXTD=
EXTT0=
EXTT1=
EXTT2=
EXTT3=
EXTT4=
EXTT5=
EXTT6=
EXTT7=
EXTT8=
EXTT9=
PLAYORDER=
